<?xml version="1.0" standalone="no"?>
<!DOCTYPE svg PUBLIC "-//W3C//DTD SVG 20010904//EN"
 "http://www.w3.org/TR/2001/REC-SVG-20010904/DTD/svg10.dtd">
<svg version="1.0" xmlns="http://www.w3.org/2000/svg"
 width="512.000000pt" height="512.000000pt" viewBox="0 0 512.000000 512.000000"
 preserveAspectRatio="xMidYMid meet">
<metadata>
Created by potrace 1.11, written by Peter Selinger 2001-2013
</metadata>
<g transform="translate(0.000000,512.000000) scale(0.100000,-0.100000)"
fill="#000000" stroke="none">
<path d="M1750 5091 c-258 -83 -608 -375 -728 -610 -50 -97 -55 -122 -93 -436
-17 -143 -39 -289 -49 -325 -11 -36 -24 -84 -30 -106 l-10 -42 -38 9 c-20 5
-63 9 -95 9 -53 0 -62 -3 -92 -33 -65 -65 -68 -135 -25 -521 17 -148 30 -289
28 -314 l-3 -44 -125 -42 c-242 -81 -399 -186 -457 -304 -54 -110 -33 -233 64
-365 20 -27 115 -131 211 -231 357 -370 484 -541 647 -867 116 -230 217 -510
244 -675 15 -87 38 -127 90 -154 40 -20 48 -20 1223 -18 1115 3 1185 4 1219
21 53 26 98 74 107 116 66 285 100 386 197 586 116 239 255 424 665 890 92
105 215 242 274 305 119 130 140 172 141 280 0 179 -166 311 -509 405 l-120
32 3 59 c1 33 16 181 32 329 43 378 34 476 -45 527 -26 16 -43 19 -111 14 -44
-2 -87 -8 -96 -11 -13 -5 -18 3 -24 41 -4 26 -16 76 -26 111 -11 36 -49 215
-84 398 -55 290 -68 344 -99 409 -96 200 -317 414 -522 507 -155 71 -134 69
-963 68 -685 0 -750 -2 -801 -18z m0 -1416 c169 -36 360 -122 499 -225 94 -70
203 -184 262 -274 37 -56 46 -65 54 -51 103 172 226 302 383 406 144 94 318
158 435 159 51 0 125 -39 171 -91 110 -121 276 -586 331 -929 9 -58 21 -121
25 -140 9 -35 9 -35 8 10 -1 25 -1 183 0 351 l2 306 68 22 c67 22 244 61 250
56 2 -2 -6 -59 -17 -127 -28 -175 -40 -289 -50 -483 -10 -204 -25 -250 -103
-320 -46 -41 -146 -85 -194 -85 -7 0 -16 -10 -19 -22 -2 -13 -12 -54 -20 -93
-36 -160 -123 -344 -195 -408 -42 -37 -70 -54 -199 -116 -55 -26 -107 -84
-132 -147 -22 -56 -23 -74 -28 -404 l-6 -345 -35 -65 c-44 -82 -163 -202 -250
-253 -133 -77 -264 -102 -495 -94 -188 6 -271 26 -384 90 -93 53 -187 152
-232 243 l-34 69 -5 355 -5 355 -28 57 c-33 66 -83 113 -164 153 -37 17 -85
55 -130 101 -63 63 -81 91 -143 216 -39 79 -83 179 -98 222 l-27 79 -55 14
c-108 27 -175 84 -213 180 -15 37 -21 88 -27 228 -9 181 -30 376 -56 514 -7
41 -12 77 -9 79 7 8 167 -27 241 -52 l69 -23 5 -384 c4 -271 7 -365 13 -319
95 735 210 1093 382 1183 38 20 66 21 155 2z"/>
<path d="M1528 2775 c-48 -26 -71 -79 -76 -171 -10 -191 97 -357 291 -452 201
-97 475 -103 623 -11 l34 20 2 -273 3 -273 33 320 c18 176 33 329 32 340 0 15
-15 26 -62 44 -105 39 -378 176 -458 228 -41 27 -120 86 -175 130 -144 116
-184 132 -247 98z m502 -378 c243 -121 242 -120 201 -176 -40 -56 -65 -66
-169 -66 -87 0 -103 3 -156 29 -112 55 -178 147 -162 228 7 36 41 99 53 97 5
0 109 -51 233 -112z"/>
<path d="M3415 2776 c-16 -7 -64 -44 -105 -80 -155 -139 -316 -243 -537 -348
l-132 -63 5 -45 c3 -25 20 -173 38 -330 l34 -285 1 253 c0 138 3 252 5 252 2
0 30 -12 62 -27 56 -27 66 -28 204 -28 130 1 153 3 226 28 152 51 268 147 330
272 41 84 58 170 49 245 -9 74 -26 110 -64 143 -36 30 -70 33 -116 13z m-117
-326 c27 -54 28 -89 3 -139 -46 -90 -159 -152 -288 -159 -69 -4 -89 -1 -126
17 -48 23 -80 61 -75 88 3 16 435 245 453 240 6 -2 20 -23 33 -47z"/>
<path d="M2292 1408 c8 -13 37 -30 64 -39 45 -16 49 -20 60 -64 15 -58 36 -82
85 -96 84 -26 170 14 184 84 11 57 16 67 30 67 31 0 93 32 98 51 5 17 0 19
-49 19 -52 0 -54 -1 -73 -39 -24 -46 -71 -71 -136 -71 -57 0 -96 20 -126 62
-32 45 -37 48 -98 48 -53 0 -53 0 -39 -22z"/>
<path d="M2055 1070 c24 -96 79 -170 125 -170 13 0 37 -33 86 -122 l68 -123
13 75 c7 41 15 90 18 108 l6 32 188 0 188 0 19 -107 19 -108 66 115 c47 81 77
123 103 140 40 28 66 63 92 125 l16 40 -42 -48 c-71 -80 -52 -77 -478 -77
l-378 0 -31 33 c-16 17 -43 50 -58 72 -21 31 -25 34 -20 15z"/>
</g>
</svg>
